%TF.GenerationSoftware,KiCad,Pcbnew,(6.0.7)*%
%TF.CreationDate,2022-11-13T21:56:09+01:00*%
%TF.ProjectId,LED Matrix,4c454420-4d61-4747-9269-782e6b696361,rev?*%
%TF.SameCoordinates,Original*%
%TF.FileFunction,Legend,Top*%
%TF.FilePolarity,Positive*%
%FSLAX46Y46*%
G04 Gerber Fmt 4.6, Leading zero omitted, Abs format (unit mm)*
G04 Created by KiCad (PCBNEW (6.0.7)) date 2022-11-13 21:56:09*
%MOMM*%
%LPD*%
G01*
G04 APERTURE LIST*
%ADD10C,0.150000*%
%ADD11C,0.120000*%
G04 APERTURE END LIST*
D10*
%TO.C,Out*%
X134072380Y-84653333D02*
X134072380Y-84462857D01*
X134120000Y-84367619D01*
X134215238Y-84272380D01*
X134405714Y-84224761D01*
X134739047Y-84224761D01*
X134929523Y-84272380D01*
X135024761Y-84367619D01*
X135072380Y-84462857D01*
X135072380Y-84653333D01*
X135024761Y-84748571D01*
X134929523Y-84843809D01*
X134739047Y-84891428D01*
X134405714Y-84891428D01*
X134215238Y-84843809D01*
X134120000Y-84748571D01*
X134072380Y-84653333D01*
X134405714Y-83367619D02*
X135072380Y-83367619D01*
X134405714Y-83796190D02*
X134929523Y-83796190D01*
X135024761Y-83748571D01*
X135072380Y-83653333D01*
X135072380Y-83510476D01*
X135024761Y-83415238D01*
X134977142Y-83367619D01*
X134405714Y-83034285D02*
X134405714Y-82653333D01*
X134072380Y-82891428D02*
X134929523Y-82891428D01*
X135024761Y-82843809D01*
X135072380Y-82748571D01*
X135072380Y-82653333D01*
%TO.C,Top*%
X116919523Y-79462380D02*
X117490952Y-79462380D01*
X117205238Y-80462380D02*
X117205238Y-79462380D01*
X117967142Y-80462380D02*
X117871904Y-80414761D01*
X117824285Y-80367142D01*
X117776666Y-80271904D01*
X117776666Y-79986190D01*
X117824285Y-79890952D01*
X117871904Y-79843333D01*
X117967142Y-79795714D01*
X118110000Y-79795714D01*
X118205238Y-79843333D01*
X118252857Y-79890952D01*
X118300476Y-79986190D01*
X118300476Y-80271904D01*
X118252857Y-80367142D01*
X118205238Y-80414761D01*
X118110000Y-80462380D01*
X117967142Y-80462380D01*
X118729047Y-79795714D02*
X118729047Y-80795714D01*
X118729047Y-79843333D02*
X118824285Y-79795714D01*
X119014761Y-79795714D01*
X119110000Y-79843333D01*
X119157619Y-79890952D01*
X119205238Y-79986190D01*
X119205238Y-80271904D01*
X119157619Y-80367142D01*
X119110000Y-80414761D01*
X119014761Y-80462380D01*
X118824285Y-80462380D01*
X118729047Y-80414761D01*
%TO.C,Bottom*%
X118038571Y-99861428D02*
X118086190Y-99718571D01*
X118133809Y-99670952D01*
X118229047Y-99623333D01*
X118371904Y-99623333D01*
X118467142Y-99670952D01*
X118514761Y-99718571D01*
X118562380Y-99813809D01*
X118562380Y-100194761D01*
X117562380Y-100194761D01*
X117562380Y-99861428D01*
X117610000Y-99766190D01*
X117657619Y-99718571D01*
X117752857Y-99670952D01*
X117848095Y-99670952D01*
X117943333Y-99718571D01*
X117990952Y-99766190D01*
X118038571Y-99861428D01*
X118038571Y-100194761D01*
X118562380Y-99051904D02*
X118514761Y-99147142D01*
X118467142Y-99194761D01*
X118371904Y-99242380D01*
X118086190Y-99242380D01*
X117990952Y-99194761D01*
X117943333Y-99147142D01*
X117895714Y-99051904D01*
X117895714Y-98909047D01*
X117943333Y-98813809D01*
X117990952Y-98766190D01*
X118086190Y-98718571D01*
X118371904Y-98718571D01*
X118467142Y-98766190D01*
X118514761Y-98813809D01*
X118562380Y-98909047D01*
X118562380Y-99051904D01*
X117895714Y-98432857D02*
X117895714Y-98051904D01*
X117562380Y-98290000D02*
X118419523Y-98290000D01*
X118514761Y-98242380D01*
X118562380Y-98147142D01*
X118562380Y-98051904D01*
X117895714Y-97861428D02*
X117895714Y-97480476D01*
X117562380Y-97718571D02*
X118419523Y-97718571D01*
X118514761Y-97670952D01*
X118562380Y-97575714D01*
X118562380Y-97480476D01*
X118562380Y-97004285D02*
X118514761Y-97099523D01*
X118467142Y-97147142D01*
X118371904Y-97194761D01*
X118086190Y-97194761D01*
X117990952Y-97147142D01*
X117943333Y-97099523D01*
X117895714Y-97004285D01*
X117895714Y-96861428D01*
X117943333Y-96766190D01*
X117990952Y-96718571D01*
X118086190Y-96670952D01*
X118371904Y-96670952D01*
X118467142Y-96718571D01*
X118514761Y-96766190D01*
X118562380Y-96861428D01*
X118562380Y-97004285D01*
X118562380Y-96242380D02*
X117895714Y-96242380D01*
X117990952Y-96242380D02*
X117943333Y-96194761D01*
X117895714Y-96099523D01*
X117895714Y-95956666D01*
X117943333Y-95861428D01*
X118038571Y-95813809D01*
X118562380Y-95813809D01*
X118038571Y-95813809D02*
X117943333Y-95766190D01*
X117895714Y-95670952D01*
X117895714Y-95528095D01*
X117943333Y-95432857D01*
X118038571Y-95385238D01*
X118562380Y-95385238D01*
%TO.C,In*%
X111382380Y-96972380D02*
X110382380Y-96972380D01*
X110715714Y-96496190D02*
X111382380Y-96496190D01*
X110810952Y-96496190D02*
X110763333Y-96448571D01*
X110715714Y-96353333D01*
X110715714Y-96210476D01*
X110763333Y-96115238D01*
X110858571Y-96067619D01*
X111382380Y-96067619D01*
D11*
%TO.C,Pix1*%
X125925000Y-86795000D02*
X118625000Y-86795000D01*
X118625000Y-86795000D02*
X118625000Y-87945000D01*
X125925000Y-92295000D02*
X118625000Y-92295000D01*
%TO.C,Out*%
X134180000Y-86010000D02*
X134180000Y-94330000D01*
X127960000Y-86010000D02*
X127960000Y-94330000D01*
X134180000Y-86010000D02*
X127440000Y-86010000D01*
X127200000Y-85770000D02*
X127200000Y-86170000D01*
X133060000Y-86010000D02*
X133060000Y-94330000D01*
X127840000Y-85770000D02*
X127200000Y-85770000D01*
X134180000Y-94330000D02*
X127440000Y-94330000D01*
X127440000Y-86010000D02*
X127440000Y-94330000D01*
%TO.C,Top*%
X126080000Y-79180000D02*
X126080000Y-85920000D01*
X120300000Y-85400000D02*
X126080000Y-85400000D01*
X120300000Y-79180000D02*
X126080000Y-79180000D01*
X120060000Y-85520000D02*
X120060000Y-86160000D01*
X120300000Y-79180000D02*
X120300000Y-85920000D01*
X120300000Y-80300000D02*
X126080000Y-80300000D01*
X120300000Y-85920000D02*
X126080000Y-85920000D01*
X120060000Y-86160000D02*
X120460000Y-86160000D01*
%TO.C,Bottom*%
X120300000Y-99890000D02*
X120300000Y-93150000D01*
X126080000Y-93670000D02*
X120300000Y-93670000D01*
X126080000Y-99890000D02*
X120300000Y-99890000D01*
X126320000Y-93550000D02*
X126320000Y-92910000D01*
X126080000Y-99890000D02*
X126080000Y-93150000D01*
X126080000Y-98770000D02*
X120300000Y-98770000D01*
X126080000Y-93150000D02*
X120300000Y-93150000D01*
X126320000Y-92910000D02*
X125920000Y-92910000D01*
%TO.C,In*%
X110930000Y-94330000D02*
X110930000Y-86010000D01*
X117150000Y-94330000D02*
X117150000Y-86010000D01*
X110930000Y-94330000D02*
X117670000Y-94330000D01*
X117910000Y-94570000D02*
X117910000Y-94170000D01*
X112050000Y-94330000D02*
X112050000Y-86010000D01*
X117270000Y-94570000D02*
X117910000Y-94570000D01*
X110930000Y-86010000D02*
X117670000Y-86010000D01*
X117670000Y-94330000D02*
X117670000Y-86010000D01*
%TD*%
M02*
