%TF.GenerationSoftware,KiCad,Pcbnew,(6.0.7)*%
%TF.CreationDate,2022-11-13T21:56:09+01:00*%
%TF.ProjectId,LED Matrix,4c454420-4d61-4747-9269-782e6b696361,rev?*%
%TF.SameCoordinates,Original*%
%TF.FileFunction,Legend,Bot*%
%TF.FilePolarity,Positive*%
%FSLAX46Y46*%
G04 Gerber Fmt 4.6, Leading zero omitted, Abs format (unit mm)*
G04 Created by KiCad (PCBNEW (6.0.7)) date 2022-11-13 21:56:09*
%MOMM*%
%LPD*%
G01*
G04 APERTURE LIST*
%ADD10C,0.300000*%
G04 APERTURE END LIST*
D10*
X116864285Y-90618571D02*
X117364285Y-92118571D01*
X117864285Y-90618571D01*
X118364285Y-91332857D02*
X118864285Y-91332857D01*
X119078571Y-92118571D02*
X118364285Y-92118571D01*
X118364285Y-90618571D01*
X119078571Y-90618571D01*
X120435714Y-92118571D02*
X119721428Y-92118571D01*
X119721428Y-90618571D01*
X120792857Y-90618571D02*
X121792857Y-90618571D01*
X120792857Y-92118571D01*
X121792857Y-92118571D01*
X122364285Y-91332857D02*
X122864285Y-91332857D01*
X123078571Y-92118571D02*
X122364285Y-92118571D01*
X122364285Y-90618571D01*
X123078571Y-90618571D01*
X124435714Y-92118571D02*
X123721428Y-92118571D01*
X123721428Y-90618571D01*
X116364285Y-88078571D02*
X117221428Y-88078571D01*
X116792857Y-89578571D02*
X116792857Y-88078571D01*
X117650000Y-89150000D02*
X118364285Y-89150000D01*
X117507142Y-89578571D02*
X118007142Y-88078571D01*
X118507142Y-89578571D01*
X119007142Y-89578571D02*
X119007142Y-88078571D01*
X119364285Y-88078571D01*
X119578571Y-88150000D01*
X119721428Y-88292857D01*
X119792857Y-88435714D01*
X119864285Y-88721428D01*
X119864285Y-88935714D01*
X119792857Y-89221428D01*
X119721428Y-89364285D01*
X119578571Y-89507142D01*
X119364285Y-89578571D01*
X119007142Y-89578571D01*
X120935714Y-88078571D02*
X120935714Y-89150000D01*
X120864285Y-89364285D01*
X120721428Y-89507142D01*
X120507142Y-89578571D01*
X120364285Y-89578571D01*
X121650000Y-89578571D02*
X121650000Y-88078571D01*
X123221428Y-89578571D02*
X122721428Y-88864285D01*
X122364285Y-89578571D02*
X122364285Y-88078571D01*
X122935714Y-88078571D01*
X123078571Y-88150000D01*
X123150000Y-88221428D01*
X123221428Y-88364285D01*
X123221428Y-88578571D01*
X123150000Y-88721428D01*
X123078571Y-88792857D01*
X122935714Y-88864285D01*
X122364285Y-88864285D01*
X124150000Y-88078571D02*
X124435714Y-88078571D01*
X124578571Y-88150000D01*
X124721428Y-88292857D01*
X124792857Y-88578571D01*
X124792857Y-89078571D01*
X124721428Y-89364285D01*
X124578571Y-89507142D01*
X124435714Y-89578571D01*
X124150000Y-89578571D01*
X124007142Y-89507142D01*
X123864285Y-89364285D01*
X123792857Y-89078571D01*
X123792857Y-88578571D01*
X123864285Y-88292857D01*
X124007142Y-88150000D01*
X124150000Y-88078571D01*
X116935714Y-87038571D02*
X116316666Y-87038571D01*
X116316666Y-85538571D01*
X117369047Y-87038571D02*
X117369047Y-85538571D01*
X118669047Y-85610000D02*
X118545238Y-85538571D01*
X118359523Y-85538571D01*
X118173809Y-85610000D01*
X118050000Y-85752857D01*
X117988095Y-85895714D01*
X117926190Y-86181428D01*
X117926190Y-86395714D01*
X117988095Y-86681428D01*
X118050000Y-86824285D01*
X118173809Y-86967142D01*
X118359523Y-87038571D01*
X118483333Y-87038571D01*
X118669047Y-86967142D01*
X118730952Y-86895714D01*
X118730952Y-86395714D01*
X118483333Y-86395714D01*
X119288095Y-87038571D02*
X119288095Y-85538571D01*
X119288095Y-86252857D02*
X120030952Y-86252857D01*
X120030952Y-87038571D02*
X120030952Y-85538571D01*
X120464285Y-85538571D02*
X121207142Y-85538571D01*
X120835714Y-87038571D02*
X120835714Y-85538571D01*
X121516666Y-85538571D02*
X121826190Y-87038571D01*
X122073809Y-85967142D01*
X122321428Y-87038571D01*
X122630952Y-85538571D01*
X123126190Y-86252857D02*
X123559523Y-86252857D01*
X123745238Y-87038571D02*
X123126190Y-87038571D01*
X123126190Y-85538571D01*
X123745238Y-85538571D01*
X124735714Y-86252857D02*
X124921428Y-86324285D01*
X124983333Y-86395714D01*
X125045238Y-86538571D01*
X125045238Y-86752857D01*
X124983333Y-86895714D01*
X124921428Y-86967142D01*
X124797619Y-87038571D01*
X124302380Y-87038571D01*
X124302380Y-85538571D01*
X124735714Y-85538571D01*
X124859523Y-85610000D01*
X124921428Y-85681428D01*
X124983333Y-85824285D01*
X124983333Y-85967142D01*
X124921428Y-86110000D01*
X124859523Y-86181428D01*
X124735714Y-86252857D01*
X124302380Y-86252857D01*
M02*
