%TF.GenerationSoftware,KiCad,Pcbnew,(6.0.7)*%
%TF.CreationDate,2022-11-13T21:56:09+01:00*%
%TF.ProjectId,LED Matrix,4c454420-4d61-4747-9269-782e6b696361,rev?*%
%TF.SameCoordinates,Original*%
%TF.FileFunction,Copper,L2,Bot*%
%TF.FilePolarity,Positive*%
%FSLAX46Y46*%
G04 Gerber Fmt 4.6, Leading zero omitted, Abs format (unit mm)*
G04 Created by KiCad (PCBNEW (6.0.7)) date 2022-11-13 21:56:09*
%MOMM*%
%LPD*%
G01*
G04 APERTURE LIST*
%TA.AperFunction,ComponentPad*%
%ADD10R,2.100000X2.100000*%
%TD*%
%TA.AperFunction,ComponentPad*%
%ADD11C,2.100000*%
%TD*%
%TA.AperFunction,ViaPad*%
%ADD12C,0.800000*%
%TD*%
%TA.AperFunction,Conductor*%
%ADD13C,0.200000*%
%TD*%
G04 APERTURE END LIST*
D10*
%TO.P,Out,1,Pin_1*%
%TO.N,/PixelSide/5V*%
X130810000Y-87630000D03*
D11*
%TO.P,Out,2,Pin_2*%
%TO.N,Net-(Out1-Pad2)*%
X130810000Y-90170000D03*
%TO.P,Out,3,Pin_3*%
%TO.N,/PixelSide/gnd*%
X130810000Y-92710000D03*
%TD*%
D10*
%TO.P,Top,1,Pin_1*%
%TO.N,/PixelSide/5V*%
X121920000Y-82550000D03*
D11*
%TO.P,Top,2,Pin_2*%
%TO.N,/PixelSide/gnd*%
X124460000Y-82550000D03*
%TD*%
D10*
%TO.P,Bottom,1,Pin_1*%
%TO.N,/PixelSide/gnd*%
X124460000Y-96520000D03*
D11*
%TO.P,Bottom,2,Pin_2*%
%TO.N,/PixelSide/5V*%
X121920000Y-96520000D03*
%TD*%
D10*
%TO.P,In,1,Pin_1*%
%TO.N,/PixelSide/gnd*%
X114300000Y-92710000D03*
D11*
%TO.P,In,2,Pin_2*%
%TO.N,/PixelSide/Data*%
X114300000Y-90170000D03*
%TO.P,In,3,Pin_3*%
%TO.N,/PixelSide/5V*%
X114300000Y-87630000D03*
%TD*%
D12*
%TO.N,Net-(Out1-Pad2)*%
X127000000Y-86360000D03*
%TD*%
D13*
%TO.N,Net-(Out1-Pad2)*%
X129540000Y-90170000D02*
X130810000Y-90170000D01*
X127000000Y-86360000D02*
X128270000Y-87630000D01*
X128270000Y-88900000D02*
X129540000Y-90170000D01*
X128270000Y-87630000D02*
X128270000Y-88900000D01*
%TD*%
%TA.AperFunction,Conductor*%
%TO.N,/PixelSide/gnd*%
G36*
X135323621Y-79268502D02*
G01*
X135370114Y-79322158D01*
X135381500Y-79374500D01*
X135381500Y-100965500D01*
X135361498Y-101033621D01*
X135307842Y-101080114D01*
X135255500Y-101091500D01*
X109854500Y-101091500D01*
X109786379Y-101071498D01*
X109739886Y-101017842D01*
X109728500Y-100965500D01*
X109728500Y-97790000D01*
X112686526Y-97790000D01*
X112706391Y-98042403D01*
X112707545Y-98047210D01*
X112707546Y-98047216D01*
X112716214Y-98083319D01*
X112765495Y-98288591D01*
X112862384Y-98522502D01*
X112994672Y-98738376D01*
X113159102Y-98930898D01*
X113351624Y-99095328D01*
X113567498Y-99227616D01*
X113572068Y-99229509D01*
X113572072Y-99229511D01*
X113796836Y-99322611D01*
X113801409Y-99324505D01*
X113886032Y-99344821D01*
X114042784Y-99382454D01*
X114042790Y-99382455D01*
X114047597Y-99383609D01*
X114147416Y-99391465D01*
X114234345Y-99398307D01*
X114234352Y-99398307D01*
X114236801Y-99398500D01*
X114363199Y-99398500D01*
X114365648Y-99398307D01*
X114365655Y-99398307D01*
X114452584Y-99391465D01*
X114552403Y-99383609D01*
X114557210Y-99382455D01*
X114557216Y-99382454D01*
X114713968Y-99344821D01*
X114798591Y-99324505D01*
X114803164Y-99322611D01*
X115027928Y-99229511D01*
X115027932Y-99229509D01*
X115032502Y-99227616D01*
X115248376Y-99095328D01*
X115440898Y-98930898D01*
X115605328Y-98738376D01*
X115737616Y-98522502D01*
X115834505Y-98288591D01*
X115883786Y-98083319D01*
X115892454Y-98047216D01*
X115892455Y-98047210D01*
X115893609Y-98042403D01*
X115913474Y-97790000D01*
X115893609Y-97537597D01*
X115834505Y-97291409D01*
X115737616Y-97057498D01*
X115605328Y-96841624D01*
X115440898Y-96649102D01*
X115289740Y-96520000D01*
X120356681Y-96520000D01*
X120375928Y-96764557D01*
X120377082Y-96769364D01*
X120377083Y-96769370D01*
X120394430Y-96841624D01*
X120433195Y-97003092D01*
X120527073Y-97229732D01*
X120655248Y-97438896D01*
X120658463Y-97442660D01*
X120658465Y-97442663D01*
X120739547Y-97537597D01*
X120814567Y-97625433D01*
X120818323Y-97628641D01*
X120887362Y-97687606D01*
X121001104Y-97784752D01*
X121005327Y-97787340D01*
X121005330Y-97787342D01*
X121074515Y-97829738D01*
X121210268Y-97912927D01*
X121354967Y-97972864D01*
X121432335Y-98004911D01*
X121432337Y-98004912D01*
X121436908Y-98006805D01*
X121505715Y-98023324D01*
X121670630Y-98062917D01*
X121670636Y-98062918D01*
X121675443Y-98064072D01*
X121920000Y-98083319D01*
X122164557Y-98064072D01*
X122169364Y-98062918D01*
X122169370Y-98062917D01*
X122334285Y-98023324D01*
X122403092Y-98006805D01*
X122407663Y-98004912D01*
X122407665Y-98004911D01*
X122485033Y-97972864D01*
X122629732Y-97912927D01*
X122807641Y-97803905D01*
X122876174Y-97785367D01*
X122943851Y-97806824D01*
X122974302Y-97835773D01*
X123041719Y-97925728D01*
X123054276Y-97938285D01*
X123156351Y-98014786D01*
X123171946Y-98023324D01*
X123292394Y-98068478D01*
X123307649Y-98072105D01*
X123358514Y-98077631D01*
X123365328Y-98078000D01*
X124187885Y-98078000D01*
X124203124Y-98073525D01*
X124204329Y-98072135D01*
X124206000Y-98064452D01*
X124206000Y-98059884D01*
X124714000Y-98059884D01*
X124718475Y-98075123D01*
X124719865Y-98076328D01*
X124727548Y-98077999D01*
X125554669Y-98077999D01*
X125561490Y-98077629D01*
X125612352Y-98072105D01*
X125627604Y-98068479D01*
X125748054Y-98023324D01*
X125763649Y-98014786D01*
X125865724Y-97938285D01*
X125878285Y-97925724D01*
X125954786Y-97823649D01*
X125963324Y-97808054D01*
X125970092Y-97790000D01*
X129196526Y-97790000D01*
X129216391Y-98042403D01*
X129217545Y-98047210D01*
X129217546Y-98047216D01*
X129226214Y-98083319D01*
X129275495Y-98288591D01*
X129372384Y-98522502D01*
X129504672Y-98738376D01*
X129669102Y-98930898D01*
X129861624Y-99095328D01*
X130077498Y-99227616D01*
X130082068Y-99229509D01*
X130082072Y-99229511D01*
X130306836Y-99322611D01*
X130311409Y-99324505D01*
X130396032Y-99344821D01*
X130552784Y-99382454D01*
X130552790Y-99382455D01*
X130557597Y-99383609D01*
X130657416Y-99391465D01*
X130744345Y-99398307D01*
X130744352Y-99398307D01*
X130746801Y-99398500D01*
X130873199Y-99398500D01*
X130875648Y-99398307D01*
X130875655Y-99398307D01*
X130962584Y-99391465D01*
X131062403Y-99383609D01*
X131067210Y-99382455D01*
X131067216Y-99382454D01*
X131223968Y-99344821D01*
X131308591Y-99324505D01*
X131313164Y-99322611D01*
X131537928Y-99229511D01*
X131537932Y-99229509D01*
X131542502Y-99227616D01*
X131758376Y-99095328D01*
X131950898Y-98930898D01*
X132115328Y-98738376D01*
X132247616Y-98522502D01*
X132344505Y-98288591D01*
X132393786Y-98083319D01*
X132402454Y-98047216D01*
X132402455Y-98047210D01*
X132403609Y-98042403D01*
X132423474Y-97790000D01*
X132403609Y-97537597D01*
X132344505Y-97291409D01*
X132247616Y-97057498D01*
X132115328Y-96841624D01*
X131950898Y-96649102D01*
X131758376Y-96484672D01*
X131542502Y-96352384D01*
X131537932Y-96350491D01*
X131537928Y-96350489D01*
X131313164Y-96257389D01*
X131313162Y-96257388D01*
X131308591Y-96255495D01*
X131223968Y-96235179D01*
X131067216Y-96197546D01*
X131067210Y-96197545D01*
X131062403Y-96196391D01*
X130962584Y-96188535D01*
X130875655Y-96181693D01*
X130875648Y-96181693D01*
X130873199Y-96181500D01*
X130746801Y-96181500D01*
X130744352Y-96181693D01*
X130744345Y-96181693D01*
X130657416Y-96188535D01*
X130557597Y-96196391D01*
X130552790Y-96197545D01*
X130552784Y-96197546D01*
X130396032Y-96235179D01*
X130311409Y-96255495D01*
X130306838Y-96257388D01*
X130306836Y-96257389D01*
X130082072Y-96350489D01*
X130082068Y-96350491D01*
X130077498Y-96352384D01*
X129861624Y-96484672D01*
X129669102Y-96649102D01*
X129504672Y-96841624D01*
X129372384Y-97057498D01*
X129275495Y-97291409D01*
X129216391Y-97537597D01*
X129196526Y-97790000D01*
X125970092Y-97790000D01*
X126008478Y-97687606D01*
X126012105Y-97672351D01*
X126017631Y-97621486D01*
X126018000Y-97614672D01*
X126018000Y-96792115D01*
X126013525Y-96776876D01*
X126012135Y-96775671D01*
X126004452Y-96774000D01*
X124732115Y-96774000D01*
X124716876Y-96778475D01*
X124715671Y-96779865D01*
X124714000Y-96787548D01*
X124714000Y-98059884D01*
X124206000Y-98059884D01*
X124206000Y-96247885D01*
X124714000Y-96247885D01*
X124718475Y-96263124D01*
X124719865Y-96264329D01*
X124727548Y-96266000D01*
X125999884Y-96266000D01*
X126015123Y-96261525D01*
X126016328Y-96260135D01*
X126017999Y-96252452D01*
X126017999Y-95425331D01*
X126017629Y-95418510D01*
X126012105Y-95367648D01*
X126008479Y-95352396D01*
X125963324Y-95231946D01*
X125954786Y-95216351D01*
X125878285Y-95114276D01*
X125865724Y-95101715D01*
X125763649Y-95025214D01*
X125748054Y-95016676D01*
X125627606Y-94971522D01*
X125612351Y-94967895D01*
X125561486Y-94962369D01*
X125554672Y-94962000D01*
X124732115Y-94962000D01*
X124716876Y-94966475D01*
X124715671Y-94967865D01*
X124714000Y-94975548D01*
X124714000Y-96247885D01*
X124206000Y-96247885D01*
X124206000Y-94980116D01*
X124201525Y-94964877D01*
X124200135Y-94963672D01*
X124192452Y-94962001D01*
X123365331Y-94962001D01*
X123358510Y-94962371D01*
X123307648Y-94967895D01*
X123292396Y-94971521D01*
X123171946Y-95016676D01*
X123156351Y-95025214D01*
X123054276Y-95101715D01*
X123041719Y-95114272D01*
X122974302Y-95204227D01*
X122917442Y-95246742D01*
X122846624Y-95251768D01*
X122807641Y-95236095D01*
X122775421Y-95216351D01*
X122629732Y-95127073D01*
X122485033Y-95067136D01*
X122407665Y-95035089D01*
X122407663Y-95035088D01*
X122403092Y-95033195D01*
X122320437Y-95013351D01*
X122169370Y-94977083D01*
X122169364Y-94977082D01*
X122164557Y-94975928D01*
X121920000Y-94956681D01*
X121675443Y-94975928D01*
X121670636Y-94977082D01*
X121670630Y-94977083D01*
X121519563Y-95013351D01*
X121436908Y-95033195D01*
X121432337Y-95035088D01*
X121432335Y-95035089D01*
X121354967Y-95067136D01*
X121210268Y-95127073D01*
X121084363Y-95204227D01*
X121005330Y-95252658D01*
X121005327Y-95252660D01*
X121001104Y-95255248D01*
X120997340Y-95258463D01*
X120997337Y-95258465D01*
X120818323Y-95411359D01*
X120814567Y-95414567D01*
X120655248Y-95601104D01*
X120527073Y-95810268D01*
X120433195Y-96036908D01*
X120432040Y-96041720D01*
X120378886Y-96263124D01*
X120375928Y-96275443D01*
X120356681Y-96520000D01*
X115289740Y-96520000D01*
X115248376Y-96484672D01*
X115032502Y-96352384D01*
X115027932Y-96350491D01*
X115027928Y-96350489D01*
X114803164Y-96257389D01*
X114803162Y-96257388D01*
X114798591Y-96255495D01*
X114713968Y-96235179D01*
X114557216Y-96197546D01*
X114557210Y-96197545D01*
X114552403Y-96196391D01*
X114452584Y-96188535D01*
X114365655Y-96181693D01*
X114365648Y-96181693D01*
X114363199Y-96181500D01*
X114236801Y-96181500D01*
X114234352Y-96181693D01*
X114234345Y-96181693D01*
X114147416Y-96188535D01*
X114047597Y-96196391D01*
X114042790Y-96197545D01*
X114042784Y-96197546D01*
X113886032Y-96235179D01*
X113801409Y-96255495D01*
X113796838Y-96257388D01*
X113796836Y-96257389D01*
X113572072Y-96350489D01*
X113572068Y-96350491D01*
X113567498Y-96352384D01*
X113351624Y-96484672D01*
X113159102Y-96649102D01*
X112994672Y-96841624D01*
X112862384Y-97057498D01*
X112765495Y-97291409D01*
X112706391Y-97537597D01*
X112686526Y-97790000D01*
X109728500Y-97790000D01*
X109728500Y-93804669D01*
X112742001Y-93804669D01*
X112742371Y-93811490D01*
X112747895Y-93862352D01*
X112751521Y-93877604D01*
X112796676Y-93998054D01*
X112805214Y-94013648D01*
X112881715Y-94115724D01*
X112894276Y-94128285D01*
X112996351Y-94204786D01*
X113011946Y-94213324D01*
X113132394Y-94258478D01*
X113147649Y-94262105D01*
X113198514Y-94267631D01*
X113205328Y-94268000D01*
X114027885Y-94268000D01*
X114043124Y-94263525D01*
X114044329Y-94262135D01*
X114046000Y-94254452D01*
X114046000Y-94249884D01*
X114554000Y-94249884D01*
X114558475Y-94265123D01*
X114559865Y-94266328D01*
X114567548Y-94267999D01*
X115394669Y-94267999D01*
X115401490Y-94267629D01*
X115452352Y-94262105D01*
X115467604Y-94258479D01*
X115588054Y-94213324D01*
X115603649Y-94204786D01*
X115705724Y-94128285D01*
X115718285Y-94115724D01*
X115794786Y-94013648D01*
X115803324Y-93998054D01*
X115810456Y-93979030D01*
X129905800Y-93979030D01*
X129911527Y-93986680D01*
X130096272Y-94099893D01*
X130105067Y-94104375D01*
X130322490Y-94194434D01*
X130331875Y-94197483D01*
X130560708Y-94252422D01*
X130570455Y-94253965D01*
X130805070Y-94272430D01*
X130814930Y-94272430D01*
X131049545Y-94253965D01*
X131059292Y-94252422D01*
X131288125Y-94197483D01*
X131297510Y-94194434D01*
X131514933Y-94104375D01*
X131523728Y-94099893D01*
X131704805Y-93988928D01*
X131714267Y-93978470D01*
X131710484Y-93969694D01*
X130822812Y-93082022D01*
X130808868Y-93074408D01*
X130807035Y-93074539D01*
X130800420Y-93078790D01*
X129912560Y-93966650D01*
X129905800Y-93979030D01*
X115810456Y-93979030D01*
X115848478Y-93877606D01*
X115852105Y-93862351D01*
X115857631Y-93811486D01*
X115858000Y-93804672D01*
X115858000Y-92982115D01*
X115853525Y-92966876D01*
X115852135Y-92965671D01*
X115844452Y-92964000D01*
X114572115Y-92964000D01*
X114556876Y-92968475D01*
X114555671Y-92969865D01*
X114554000Y-92977548D01*
X114554000Y-94249884D01*
X114046000Y-94249884D01*
X114046000Y-92982115D01*
X114041525Y-92966876D01*
X114040135Y-92965671D01*
X114032452Y-92964000D01*
X112760116Y-92964000D01*
X112744877Y-92968475D01*
X112743672Y-92969865D01*
X112742001Y-92977548D01*
X112742001Y-93804669D01*
X109728500Y-93804669D01*
X109728500Y-92714930D01*
X129247570Y-92714930D01*
X129266035Y-92949545D01*
X129267578Y-92959292D01*
X129322517Y-93188125D01*
X129325566Y-93197510D01*
X129415625Y-93414933D01*
X129420107Y-93423728D01*
X129531072Y-93604805D01*
X129541530Y-93614267D01*
X129550306Y-93610484D01*
X130437978Y-92722812D01*
X130444356Y-92711132D01*
X131174408Y-92711132D01*
X131174539Y-92712965D01*
X131178790Y-92719580D01*
X132066650Y-93607440D01*
X132079030Y-93614200D01*
X132086680Y-93608473D01*
X132199893Y-93423728D01*
X132204375Y-93414933D01*
X132294434Y-93197510D01*
X132297483Y-93188125D01*
X132352422Y-92959292D01*
X132353965Y-92949545D01*
X132372430Y-92714930D01*
X132372430Y-92705070D01*
X132353965Y-92470455D01*
X132352422Y-92460708D01*
X132297483Y-92231875D01*
X132294434Y-92222490D01*
X132204375Y-92005067D01*
X132199893Y-91996272D01*
X132088928Y-91815195D01*
X132078470Y-91805733D01*
X132069694Y-91809516D01*
X131182022Y-92697188D01*
X131174408Y-92711132D01*
X130444356Y-92711132D01*
X130445592Y-92708868D01*
X130445461Y-92707035D01*
X130441210Y-92700420D01*
X129553350Y-91812560D01*
X129540970Y-91805800D01*
X129533320Y-91811527D01*
X129420107Y-91996272D01*
X129415625Y-92005067D01*
X129325566Y-92222490D01*
X129322517Y-92231875D01*
X129267578Y-92460708D01*
X129266035Y-92470455D01*
X129247570Y-92705070D01*
X129247570Y-92714930D01*
X109728500Y-92714930D01*
X109728500Y-90170000D01*
X112736681Y-90170000D01*
X112755928Y-90414557D01*
X112813195Y-90653092D01*
X112907073Y-90879732D01*
X113009481Y-91046847D01*
X113016095Y-91057641D01*
X113034633Y-91126174D01*
X113013176Y-91193851D01*
X112984227Y-91224302D01*
X112894272Y-91291719D01*
X112881715Y-91304276D01*
X112805214Y-91406351D01*
X112796676Y-91421946D01*
X112751522Y-91542394D01*
X112747895Y-91557649D01*
X112742369Y-91608514D01*
X112742000Y-91615328D01*
X112742000Y-92437885D01*
X112746475Y-92453124D01*
X112747865Y-92454329D01*
X112755548Y-92456000D01*
X115839884Y-92456000D01*
X115855123Y-92451525D01*
X115856328Y-92450135D01*
X115857999Y-92442452D01*
X115857999Y-91615331D01*
X115857629Y-91608510D01*
X115852105Y-91557648D01*
X115848479Y-91542396D01*
X115803324Y-91421946D01*
X115794786Y-91406351D01*
X115718285Y-91304276D01*
X115705728Y-91291719D01*
X115615773Y-91224302D01*
X115573258Y-91167442D01*
X115568232Y-91096624D01*
X115583905Y-91057641D01*
X115590519Y-91046847D01*
X115692927Y-90879732D01*
X115786805Y-90653092D01*
X115844072Y-90414557D01*
X115863319Y-90170000D01*
X115844072Y-89925443D01*
X115786805Y-89686908D01*
X115692927Y-89460268D01*
X115564752Y-89251104D01*
X115532575Y-89213429D01*
X115408641Y-89068323D01*
X115405433Y-89064567D01*
X115401677Y-89061359D01*
X115324931Y-88995811D01*
X115286122Y-88936360D01*
X115285616Y-88865365D01*
X115324931Y-88804189D01*
X115401677Y-88738641D01*
X115405433Y-88735433D01*
X115448630Y-88684856D01*
X115561535Y-88552663D01*
X115561537Y-88552660D01*
X115564752Y-88548896D01*
X115692927Y-88339732D01*
X115786805Y-88113092D01*
X115836174Y-87907456D01*
X115842917Y-87879370D01*
X115842918Y-87879364D01*
X115844072Y-87874557D01*
X115863319Y-87630000D01*
X115844072Y-87385443D01*
X115831170Y-87331700D01*
X115787960Y-87151720D01*
X115786805Y-87146908D01*
X115692927Y-86920268D01*
X115577285Y-86731556D01*
X115567342Y-86715330D01*
X115567340Y-86715327D01*
X115564752Y-86711104D01*
X115432456Y-86556206D01*
X115408641Y-86528323D01*
X115405433Y-86524567D01*
X115218896Y-86365248D01*
X115214673Y-86362660D01*
X115214670Y-86362658D01*
X115210332Y-86360000D01*
X126086496Y-86360000D01*
X126087186Y-86366565D01*
X126104560Y-86531866D01*
X126106458Y-86549928D01*
X126165473Y-86731556D01*
X126260960Y-86896944D01*
X126388747Y-87038866D01*
X126543248Y-87151118D01*
X126549276Y-87153802D01*
X126549278Y-87153803D01*
X126644084Y-87196013D01*
X126717712Y-87228794D01*
X126811113Y-87248647D01*
X126898056Y-87267128D01*
X126898061Y-87267128D01*
X126904513Y-87268500D01*
X126995761Y-87268500D01*
X127063882Y-87288502D01*
X127084856Y-87305405D01*
X127624595Y-87845144D01*
X127658621Y-87907456D01*
X127661500Y-87934239D01*
X127661500Y-88851864D01*
X127660422Y-88868307D01*
X127656250Y-88900000D01*
X127657328Y-88908189D01*
X127661500Y-88939880D01*
X127661500Y-88939885D01*
X127672433Y-89022925D01*
X127672433Y-89022927D01*
X127674165Y-89036081D01*
X127677162Y-89058851D01*
X127738476Y-89206876D01*
X127743503Y-89213427D01*
X127743504Y-89213429D01*
X127811520Y-89302069D01*
X127811526Y-89302075D01*
X127836013Y-89333987D01*
X127842568Y-89339017D01*
X127861379Y-89353452D01*
X127873770Y-89364319D01*
X129075685Y-90566234D01*
X129086552Y-90578625D01*
X129106013Y-90603987D01*
X129112563Y-90609013D01*
X129137925Y-90628474D01*
X129137928Y-90628477D01*
X129170007Y-90653092D01*
X129233124Y-90701524D01*
X129294438Y-90726921D01*
X129317846Y-90736617D01*
X129373127Y-90781164D01*
X129386038Y-90804808D01*
X129415179Y-90875161D01*
X129415182Y-90875167D01*
X129417073Y-90879732D01*
X129545248Y-91088896D01*
X129548463Y-91092660D01*
X129548465Y-91092663D01*
X129612333Y-91167442D01*
X129704567Y-91275433D01*
X129891104Y-91434752D01*
X129893451Y-91436190D01*
X129906815Y-91447605D01*
X130797188Y-92337978D01*
X130811132Y-92345592D01*
X130812965Y-92345461D01*
X130819580Y-92341210D01*
X131713185Y-91447605D01*
X131726549Y-91436190D01*
X131728896Y-91434752D01*
X131915433Y-91275433D01*
X132007667Y-91167442D01*
X132071535Y-91092663D01*
X132071537Y-91092660D01*
X132074752Y-91088896D01*
X132202927Y-90879732D01*
X132296805Y-90653092D01*
X132354072Y-90414557D01*
X132373319Y-90170000D01*
X132354072Y-89925443D01*
X132296805Y-89686908D01*
X132202927Y-89460268D01*
X132094168Y-89282788D01*
X132075630Y-89214255D01*
X132097087Y-89146578D01*
X132126035Y-89116128D01*
X132132987Y-89110918D01*
X132223261Y-89043261D01*
X132310615Y-88926705D01*
X132361745Y-88790316D01*
X132368500Y-88728134D01*
X132368500Y-86531866D01*
X132361745Y-86469684D01*
X132310615Y-86333295D01*
X132223261Y-86216739D01*
X132106705Y-86129385D01*
X131970316Y-86078255D01*
X131908134Y-86071500D01*
X129711866Y-86071500D01*
X129649684Y-86078255D01*
X129513295Y-86129385D01*
X129396739Y-86216739D01*
X129309385Y-86333295D01*
X129258255Y-86469684D01*
X129251500Y-86531866D01*
X129251500Y-88716761D01*
X129231498Y-88784882D01*
X129177842Y-88831375D01*
X129107568Y-88841479D01*
X129042988Y-88811985D01*
X129036405Y-88805856D01*
X128915405Y-88684856D01*
X128881379Y-88622544D01*
X128878500Y-88595761D01*
X128878500Y-87678136D01*
X128879578Y-87661690D01*
X128882672Y-87638188D01*
X128883750Y-87630000D01*
X128878500Y-87590122D01*
X128878500Y-87590115D01*
X128862838Y-87471150D01*
X128801524Y-87323125D01*
X128801524Y-87323124D01*
X128728477Y-87227928D01*
X128728474Y-87227925D01*
X128703987Y-87196013D01*
X128697432Y-87190983D01*
X128678621Y-87176548D01*
X128666230Y-87165681D01*
X127949719Y-86449170D01*
X127915693Y-86386858D01*
X127913159Y-86363284D01*
X127913504Y-86360000D01*
X127900385Y-86235180D01*
X127894232Y-86176635D01*
X127894232Y-86176633D01*
X127893542Y-86170072D01*
X127834527Y-85988444D01*
X127739040Y-85823056D01*
X127611253Y-85681134D01*
X127456752Y-85568882D01*
X127450724Y-85566198D01*
X127450722Y-85566197D01*
X127288319Y-85493891D01*
X127288318Y-85493891D01*
X127282288Y-85491206D01*
X127188887Y-85471353D01*
X127101944Y-85452872D01*
X127101939Y-85452872D01*
X127095487Y-85451500D01*
X126904513Y-85451500D01*
X126898061Y-85452872D01*
X126898056Y-85452872D01*
X126811113Y-85471353D01*
X126717712Y-85491206D01*
X126711682Y-85493891D01*
X126711681Y-85493891D01*
X126549278Y-85566197D01*
X126549276Y-85566198D01*
X126543248Y-85568882D01*
X126388747Y-85681134D01*
X126260960Y-85823056D01*
X126165473Y-85988444D01*
X126106458Y-86170072D01*
X126105768Y-86176633D01*
X126105768Y-86176635D01*
X126099615Y-86235180D01*
X126086496Y-86360000D01*
X115210332Y-86360000D01*
X115145485Y-86320262D01*
X115009732Y-86237073D01*
X114832822Y-86163794D01*
X114787665Y-86145089D01*
X114787663Y-86145088D01*
X114783092Y-86143195D01*
X114700437Y-86123351D01*
X114549370Y-86087083D01*
X114549364Y-86087082D01*
X114544557Y-86085928D01*
X114300000Y-86066681D01*
X114055443Y-86085928D01*
X114050636Y-86087082D01*
X114050630Y-86087083D01*
X113899563Y-86123351D01*
X113816908Y-86143195D01*
X113812337Y-86145088D01*
X113812335Y-86145089D01*
X113767178Y-86163794D01*
X113590268Y-86237073D01*
X113454515Y-86320262D01*
X113385330Y-86362658D01*
X113385327Y-86362660D01*
X113381104Y-86365248D01*
X113194567Y-86524567D01*
X113191359Y-86528323D01*
X113167545Y-86556206D01*
X113035248Y-86711104D01*
X113032660Y-86715327D01*
X113032658Y-86715330D01*
X113022715Y-86731556D01*
X112907073Y-86920268D01*
X112813195Y-87146908D01*
X112812040Y-87151720D01*
X112768831Y-87331700D01*
X112755928Y-87385443D01*
X112736681Y-87630000D01*
X112755928Y-87874557D01*
X112757082Y-87879364D01*
X112757083Y-87879370D01*
X112763826Y-87907456D01*
X112813195Y-88113092D01*
X112907073Y-88339732D01*
X113035248Y-88548896D01*
X113038463Y-88552660D01*
X113038465Y-88552663D01*
X113151370Y-88684856D01*
X113194567Y-88735433D01*
X113198323Y-88738641D01*
X113275069Y-88804189D01*
X113313878Y-88863640D01*
X113314384Y-88934635D01*
X113275069Y-88995811D01*
X113198323Y-89061359D01*
X113194567Y-89064567D01*
X113191359Y-89068323D01*
X113067426Y-89213429D01*
X113035248Y-89251104D01*
X112907073Y-89460268D01*
X112813195Y-89686908D01*
X112755928Y-89925443D01*
X112736681Y-90170000D01*
X109728500Y-90170000D01*
X109728500Y-82550000D01*
X112686526Y-82550000D01*
X112706391Y-82802403D01*
X112765495Y-83048591D01*
X112767388Y-83053162D01*
X112767389Y-83053164D01*
X112854608Y-83263728D01*
X112862384Y-83282502D01*
X112994672Y-83498376D01*
X113159102Y-83690898D01*
X113351624Y-83855328D01*
X113567498Y-83987616D01*
X113572068Y-83989509D01*
X113572072Y-83989511D01*
X113796836Y-84082611D01*
X113801409Y-84084505D01*
X113886032Y-84104821D01*
X114042784Y-84142454D01*
X114042790Y-84142455D01*
X114047597Y-84143609D01*
X114147416Y-84151465D01*
X114234345Y-84158307D01*
X114234352Y-84158307D01*
X114236801Y-84158500D01*
X114363199Y-84158500D01*
X114365648Y-84158307D01*
X114365655Y-84158307D01*
X114452584Y-84151465D01*
X114552403Y-84143609D01*
X114557210Y-84142455D01*
X114557216Y-84142454D01*
X114713968Y-84104821D01*
X114798591Y-84084505D01*
X114803164Y-84082611D01*
X115027928Y-83989511D01*
X115027932Y-83989509D01*
X115032502Y-83987616D01*
X115248376Y-83855328D01*
X115440898Y-83690898D01*
X115477422Y-83648134D01*
X120361500Y-83648134D01*
X120368255Y-83710316D01*
X120419385Y-83846705D01*
X120506739Y-83963261D01*
X120623295Y-84050615D01*
X120759684Y-84101745D01*
X120821866Y-84108500D01*
X123018134Y-84108500D01*
X123080316Y-84101745D01*
X123216705Y-84050615D01*
X123333261Y-83963261D01*
X123406430Y-83865633D01*
X123463288Y-83823118D01*
X123534107Y-83818092D01*
X123573090Y-83833766D01*
X123746272Y-83939893D01*
X123755067Y-83944375D01*
X123972490Y-84034434D01*
X123981875Y-84037483D01*
X124210708Y-84092422D01*
X124220455Y-84093965D01*
X124455070Y-84112430D01*
X124464930Y-84112430D01*
X124699545Y-84093965D01*
X124709292Y-84092422D01*
X124938125Y-84037483D01*
X124947510Y-84034434D01*
X125164933Y-83944375D01*
X125173728Y-83939893D01*
X125354805Y-83828928D01*
X125364267Y-83818470D01*
X125360484Y-83809694D01*
X124189885Y-82639095D01*
X124155859Y-82576783D01*
X124157694Y-82551132D01*
X124824408Y-82551132D01*
X124824539Y-82552965D01*
X124828790Y-82559580D01*
X125716650Y-83447440D01*
X125729030Y-83454200D01*
X125736680Y-83448473D01*
X125849893Y-83263728D01*
X125854375Y-83254933D01*
X125944434Y-83037510D01*
X125947483Y-83028125D01*
X126002422Y-82799292D01*
X126003965Y-82789545D01*
X126022430Y-82554930D01*
X126022430Y-82550000D01*
X129196526Y-82550000D01*
X129216391Y-82802403D01*
X129275495Y-83048591D01*
X129277388Y-83053162D01*
X129277389Y-83053164D01*
X129364608Y-83263728D01*
X129372384Y-83282502D01*
X129504672Y-83498376D01*
X129669102Y-83690898D01*
X129861624Y-83855328D01*
X130077498Y-83987616D01*
X130082068Y-83989509D01*
X130082072Y-83989511D01*
X130306836Y-84082611D01*
X130311409Y-84084505D01*
X130396032Y-84104821D01*
X130552784Y-84142454D01*
X130552790Y-84142455D01*
X130557597Y-84143609D01*
X130657416Y-84151465D01*
X130744345Y-84158307D01*
X130744352Y-84158307D01*
X130746801Y-84158500D01*
X130873199Y-84158500D01*
X130875648Y-84158307D01*
X130875655Y-84158307D01*
X130962584Y-84151465D01*
X131062403Y-84143609D01*
X131067210Y-84142455D01*
X131067216Y-84142454D01*
X131223968Y-84104821D01*
X131308591Y-84084505D01*
X131313164Y-84082611D01*
X131537928Y-83989511D01*
X131537932Y-83989509D01*
X131542502Y-83987616D01*
X131758376Y-83855328D01*
X131950898Y-83690898D01*
X132115328Y-83498376D01*
X132247616Y-83282502D01*
X132255393Y-83263728D01*
X132342611Y-83053164D01*
X132342612Y-83053162D01*
X132344505Y-83048591D01*
X132403609Y-82802403D01*
X132423474Y-82550000D01*
X132403609Y-82297597D01*
X132344505Y-82051409D01*
X132342611Y-82046836D01*
X132249511Y-81822072D01*
X132249509Y-81822068D01*
X132247616Y-81817498D01*
X132115328Y-81601624D01*
X131950898Y-81409102D01*
X131758376Y-81244672D01*
X131542502Y-81112384D01*
X131537932Y-81110491D01*
X131537928Y-81110489D01*
X131313164Y-81017389D01*
X131313162Y-81017388D01*
X131308591Y-81015495D01*
X131192274Y-80987570D01*
X131067216Y-80957546D01*
X131067210Y-80957545D01*
X131062403Y-80956391D01*
X130962584Y-80948535D01*
X130875655Y-80941693D01*
X130875648Y-80941693D01*
X130873199Y-80941500D01*
X130746801Y-80941500D01*
X130744352Y-80941693D01*
X130744345Y-80941693D01*
X130657416Y-80948535D01*
X130557597Y-80956391D01*
X130552790Y-80957545D01*
X130552784Y-80957546D01*
X130427726Y-80987570D01*
X130311409Y-81015495D01*
X130306838Y-81017388D01*
X130306836Y-81017389D01*
X130082072Y-81110489D01*
X130082068Y-81110491D01*
X130077498Y-81112384D01*
X129861624Y-81244672D01*
X129669102Y-81409102D01*
X129504672Y-81601624D01*
X129372384Y-81817498D01*
X129370491Y-81822068D01*
X129370489Y-81822072D01*
X129277389Y-82046836D01*
X129275495Y-82051409D01*
X129216391Y-82297597D01*
X129196526Y-82550000D01*
X126022430Y-82550000D01*
X126022430Y-82545070D01*
X126003965Y-82310455D01*
X126002422Y-82300708D01*
X125947483Y-82071875D01*
X125944434Y-82062490D01*
X125854375Y-81845067D01*
X125849893Y-81836272D01*
X125738928Y-81655195D01*
X125728470Y-81645733D01*
X125719694Y-81649516D01*
X124832022Y-82537188D01*
X124824408Y-82551132D01*
X124157694Y-82551132D01*
X124160924Y-82505968D01*
X124189885Y-82460905D01*
X125357440Y-81293350D01*
X125364200Y-81280970D01*
X125358473Y-81273320D01*
X125173728Y-81160107D01*
X125164933Y-81155625D01*
X124947510Y-81065566D01*
X124938125Y-81062517D01*
X124709292Y-81007578D01*
X124699545Y-81006035D01*
X124464930Y-80987570D01*
X124455070Y-80987570D01*
X124220455Y-81006035D01*
X124210708Y-81007578D01*
X123981875Y-81062517D01*
X123972490Y-81065566D01*
X123755067Y-81155625D01*
X123746272Y-81160107D01*
X123573090Y-81266234D01*
X123504557Y-81284773D01*
X123436880Y-81263317D01*
X123406429Y-81234367D01*
X123338642Y-81143919D01*
X123333261Y-81136739D01*
X123216705Y-81049385D01*
X123080316Y-80998255D01*
X123018134Y-80991500D01*
X120821866Y-80991500D01*
X120759684Y-80998255D01*
X120623295Y-81049385D01*
X120506739Y-81136739D01*
X120419385Y-81253295D01*
X120368255Y-81389684D01*
X120361500Y-81451866D01*
X120361500Y-83648134D01*
X115477422Y-83648134D01*
X115605328Y-83498376D01*
X115737616Y-83282502D01*
X115745393Y-83263728D01*
X115832611Y-83053164D01*
X115832612Y-83053162D01*
X115834505Y-83048591D01*
X115893609Y-82802403D01*
X115913474Y-82550000D01*
X115893609Y-82297597D01*
X115834505Y-82051409D01*
X115832611Y-82046836D01*
X115739511Y-81822072D01*
X115739509Y-81822068D01*
X115737616Y-81817498D01*
X115605328Y-81601624D01*
X115440898Y-81409102D01*
X115248376Y-81244672D01*
X115032502Y-81112384D01*
X115027932Y-81110491D01*
X115027928Y-81110489D01*
X114803164Y-81017389D01*
X114803162Y-81017388D01*
X114798591Y-81015495D01*
X114682274Y-80987570D01*
X114557216Y-80957546D01*
X114557210Y-80957545D01*
X114552403Y-80956391D01*
X114452584Y-80948535D01*
X114365655Y-80941693D01*
X114365648Y-80941693D01*
X114363199Y-80941500D01*
X114236801Y-80941500D01*
X114234352Y-80941693D01*
X114234345Y-80941693D01*
X114147416Y-80948535D01*
X114047597Y-80956391D01*
X114042790Y-80957545D01*
X114042784Y-80957546D01*
X113917726Y-80987570D01*
X113801409Y-81015495D01*
X113796838Y-81017388D01*
X113796836Y-81017389D01*
X113572072Y-81110489D01*
X113572068Y-81110491D01*
X113567498Y-81112384D01*
X113351624Y-81244672D01*
X113159102Y-81409102D01*
X112994672Y-81601624D01*
X112862384Y-81817498D01*
X112860491Y-81822068D01*
X112860489Y-81822072D01*
X112767389Y-82046836D01*
X112765495Y-82051409D01*
X112706391Y-82297597D01*
X112686526Y-82550000D01*
X109728500Y-82550000D01*
X109728500Y-79374500D01*
X109748502Y-79306379D01*
X109802158Y-79259886D01*
X109854500Y-79248500D01*
X135255500Y-79248500D01*
X135323621Y-79268502D01*
G37*
%TD.AperFunction*%
%TD*%
M02*
